# Blender v2.77 (sub 0) OBJ File: 'arwing1.blend'
# www.blender.org
o Cube
v 1.000000 1.246722 -0.734476
v 2.820049 0.818994 -2.687815
v 0.606144 1.529198 1.500197
v 0.392761 1.529198 -0.509259
v 1.724900 1.529198 -0.737648
v 0.832272 1.529198 -0.509259
v 0.392761 1.529198 -0.509259
v 0.606144 2.425054 -2.501528
v 0.392761 1.529198 -0.509259
v -1.000000 1.246722 -0.734476
v -2.820049 0.818994 -2.687815
v -0.606144 1.529198 1.500197
v -0.392761 1.529198 -0.509259
v 0.000000 1.742752 -1.000000
v 0.000000 1.500377 3.657657
v -1.724900 1.529198 -0.737648
v -0.832272 1.529198 -0.509259
v 0.000000 1.931763 -0.541172
v -0.392761 1.529198 -0.509259
v -0.606144 2.425054 -2.501528
v -0.392761 1.529198 -0.509259
v 0.000000 1.529198 -0.509259
vn -0.8994 0.4266 0.0955
vn 0.0000 -1.0000 0.0000
vn 0.1557 -0.3892 0.9079
vn 0.6994 0.6608 -0.2722
vn -0.0639 0.9256 -0.3730
vn 0.7111 0.6994 0.0719
vn 0.8890 0.4469 0.1000
vn 0.3207 -0.8177 0.4779
vn 0.0000 -0.9120 -0.4101
vn 0.0000 -0.0790 -0.9969
vn 0.0000 -1.0000 -0.0069
vn -0.4870 -0.8300 -0.2720
vn 0.8994 0.4266 0.0955
vn -0.1557 -0.3892 0.9079
vn -0.6994 0.6608 -0.2722
vn 0.0639 0.9256 -0.3730
vn -0.7111 0.6994 0.0719
vn -0.8890 0.4469 0.1000
vn -0.3207 -0.8177 0.4779
vn 0.4870 -0.8300 -0.2720
s off
f 7//1 3//1 8//1
f 3//2 7//2 6//2
f 1//3 5//3 9//3
f 7//4 14//4 18//4
f 5//5 2//5 9//5
f 15//6 7//6 18//6
f 3//7 6//7 8//7
f 5//8 1//8 2//8
f 6//9 7//9 8//9
f 9//10 22//10 18//10
f 22//11 9//11 15//11
f 1//12 9//12 2//12
f 19//13 20//13 12//13
f 12//2 17//2 19//2
f 10//14 21//14 16//14
f 19//15 18//15 14//15
f 16//16 21//16 11//16
f 15//17 18//17 19//17
f 12//18 20//18 17//18
f 16//19 11//19 10//19
f 17//9 20//9 19//9
f 21//10 18//10 22//10
f 22//11 15//11 21//11
f 10//20 11//20 21//20
